<?xml version="1.0" encoding="UTF-8" standalone="no"?>
<svg
   height="16"
   viewBox="0 0 16 16"
   width="16"
   version="1.1"
   id="svg1"
   xmlns="http://www.w3.org/2000/svg"
   xmlns:svg="http://www.w3.org/2000/svg">
  <defs
     id="defs1">
    <linearGradient
       id="swatch3">
      <stop
         style="stop-color:#000000;stop-opacity:1;"
         offset="0"
         id="stop3" />
    </linearGradient>
  </defs>
  <path
     d="M 6.2597656,1.9394531 C 2.1891,1.9588186 0.48591205,7.3984037 4,9.453125 V 13 c 0,1.104567 0.8954327,2 2,2 l 2.3405469,0.02 v -2 L 7,13 V 12 H 6 v 1 H 5 V 9 h 1 v 1 H 7 V 9 h 2 v 1 h 1 V 9 h 1.075 l -10e-6,1 H 12 V 9.453125 C 15.514088,7.3984037 14.070666,2.0193655 10,2 L 8.6738281,1.9765625 9.1875,2.5117188 9.3496094,3.4394531 10.234375,4.2851562 8.9199219,6.4375 9.7070313,4.3691406 8.8105469,3.484375 8.6347656,2.5195313 7.7421875,1.9707031 6.9902344,1.9609375 6.9394531,2.4394531 7.6191406,2.7402344 7.1601562,4.2597656 7.0195312,5.3398437 6.5996094,4.3007812 7.0195312,2.9609375 6.2792969,2.640625 Z M 5,5 C 6.3333301,5 6.3333301,7 5,7 3.6666699,7 3.6666699,5 5,5 Z m 6,0 c 1.33333,0 1.33333,2 0,2 C 9.6666699,7 9.6666699,5 11,5 Z M 7,7 H 9 V 8 H 7 Z"
     style="fill:#e0e0e0"
     id="path17" />
  <path
     d="m 11.150761,13.526579 c 0.01655,0.488918 -0.219902,0.942126 -0.542753,1.113184 -0.362029,0.197188 -0.7572267,0.116868 -1.1366427,0.134008 -0.169627,0 -0.3392539,0 -0.5088809,0 0,-1.351578 0,-2.703156 0,-4.054734 0.4309198,0.0075 0.8628013,-0.01958 1.2928346,0.02502 0.282498,0.0361 0.601842,0.269181 0.637831,0.702865 0.0567,0.371893 -0.07362,0.76801 -0.312384,0.94985 -0.168571,0.132215 0.264176,0.134271 0.307909,0.305893 0.178167,0.19612 0.266875,0.511389 0.262086,0.823916 z m -0.648883,-1.827217 c 0.02505,-0.31647 -0.200293,-0.513821 -0.403848,-0.505523 -0.2495047,-0.02448 -0.4998101,-0.01116 -0.749723,-0.01459 0,0.390315 0,0.78063 0,1.170944 0.2798536,-0.01084 0.5634065,0.02975 0.839846,-0.04153 0.187503,-0.05512 0.322332,-0.298015 0.313116,-0.565772 z m 0.247472,1.849002 C 10.7715,13.248181 10.643989,12.947216 10.429871,12.86971 10.111705,12.764856 9.7811762,12.81816 9.4569496,12.80495 9.3689406,12.77996 9.3256558,12.81747 9.348307,12.947123 c 0,0.45548 0,0.910959 0,1.366439 0.3462639,-0.01328 0.698961,0.04202 1.038664,-0.07242 0.219176,-0.0819 0.38155,-0.370623 0.362379,-0.692781 z m 2.802086,-2.350057 c -0.489099,0 -0.978197,0 -1.467296,0 0,0.381238 0,0.762475 0,1.143713 0.420248,0 0.840496,0 1.260744,0 0,0.159756 0,0.319513 0,0.47927 -0.420248,0 -0.840496,0 -1.260744,0 0,0.650827 0,1.301654 0,1.952481 -0.128607,0 -0.257215,0 -0.385822,0 0,-1.351578 0,-2.703156 0,-4.054734 0.617706,0 1.235412,0 1.853118,0 0,0.159757 0,0.319513 0,0.47927 z"
     id="text7"
     style="font-size:5.04838px;font-family:Sans;-inkscape-font-specification:'Sans, Normal';white-space:pre;fill:#e0e0e0;stroke:#e0e0e0;stroke-width:0.393;stroke-dasharray:none;stroke-opacity:1;paint-order:stroke fill markers"
     aria-label="BF" />
</svg>
